<svg version="1.1" id="Layer_1" xmlns="http://www.w3.org/2000/svg" xmlns:xlink="http://www.w3.org/1999/xlink" x="0px" y="0px" width="53.75px" height="53.5px" viewBox="0 0 53.75 53.5" enable-background="new 0 0 53.75 53.5" xml:space="preserve"><path fill="#e8e8e8" d="M52.676,49.471l-3.115,3.115c-1.354,1.219-3.385,1.219-4.604,0L32.092,39.721c-3.113,1.762-6.77,2.844-10.562,2.844C10.021,42.564,0,32.545,0,21.034C0,9.389,9.343,0.045,20.854,0.045c11.646,0,21.666,10.021,21.666,21.531c0,4.062-1.083,7.719-3.115,10.969L52.27,45.273C53.487,46.627,53.895,48.117,52.676,49.471M21.53,36.201c7.989,0,14.489-6.5,14.489-14.625c0-7.99-7.177-15.031-15.166-15.031c-7.99,0-14.489,6.5-14.489,14.489S13.541,36.201,21.53,36.201"/></svg>